<svg xmlns="http://www.w3.org/2000/svg" version="1.1" xmlns:xlink="http://www.w3.org/1999/xlink" xmlns:svgjs="http://svgjs.com/svgjs" width="512" height="512" x="0" y="0" viewBox="0 0 512 512" style="enable-background:new 0 0 512 512" xml:space="preserve" class=""><g>
<path xmlns="http://www.w3.org/2000/svg" style="" d="M407,512H105C47.103,512,0,464.897,0,407V105C0,47.103,47.103,0,105,0h302  c57.897,0,105,47.103,105,105v302C512,464.897,464.897,512,407,512z" fill="#f2f2f2" data-original="#f2f2f2" class=""></path>
<path xmlns="http://www.w3.org/2000/svg" style="" d="M407,0H256v512h151c57.897,0,105-47.103,105-105V105C512,47.103,464.897,0,407,0z" fill="#e5e5e5" data-original="#e5e5e5" class=""></path>
<path xmlns="http://www.w3.org/2000/svg" style="" d="M383,316v15v25c0,22.056-17.944,40-40,40h-25c-22.056,0-40-17.944-40-40s17.944-40,40-40h35V168.807  l-144,24.828V346v15v25c0,22.056-17.944,40-40,40h-25c-22.056,0-40-17.944-40-40s17.944-40,40-40h35V118.365l204-35.172V316z" fill="#80dcff" data-original="#ff80e4" class=""></path>
<path xmlns="http://www.w3.org/2000/svg" style="" d="M256,105.089v80.443l97-16.724V316h-35c-22.056,0-40,17.944-40,40s17.944,40,40,40h25  c22.056,0,40-17.944,40-40v-25v-15V83.192L256,105.089z" fill="#80dcff" data-original="#ff5ad4" class=""></path>
<g xmlns="http://www.w3.org/2000/svg">
</g>
<g xmlns="http://www.w3.org/2000/svg">
</g>
<g xmlns="http://www.w3.org/2000/svg">
</g>
<g xmlns="http://www.w3.org/2000/svg">
</g>
<g xmlns="http://www.w3.org/2000/svg">
</g>
<g xmlns="http://www.w3.org/2000/svg">
</g>
<g xmlns="http://www.w3.org/2000/svg">
</g>
<g xmlns="http://www.w3.org/2000/svg">
</g>
<g xmlns="http://www.w3.org/2000/svg">
</g>
<g xmlns="http://www.w3.org/2000/svg">
</g>
<g xmlns="http://www.w3.org/2000/svg">
</g>
<g xmlns="http://www.w3.org/2000/svg">
</g>
<g xmlns="http://www.w3.org/2000/svg">
</g>
<g xmlns="http://www.w3.org/2000/svg">
</g>
<g xmlns="http://www.w3.org/2000/svg">
</g>
</g></svg>