<svg xmlns="http://www.w3.org/2000/svg" version="1.1" xmlns:xlink="http://www.w3.org/1999/xlink" xmlns:svgjs="http://svgjs.com/svgjs" width="512" height="512" x="0" y="0" viewBox="0 0 58 58" style="enable-background:new 0 0 512 512" xml:space="preserve" class=""><g><g xmlns="http://www.w3.org/2000/svg" id="Page-1" fill="none" fill-rule="evenodd"><g id="071---Incognito-Page" fill-rule="nonzero"><path id="Shape" d="m58 14v40c0 2.209139-1.790861 4-4 4h-50c-2.209139 0-4-1.790861-4-4v-40z" fill="#ecf0f1" data-original="#ecf0f1" class=""></path><path id="Shape" d="m58 10v4h-58v-10h25c1.1032019.0032948 1.9967052.89679813 2 2v2c.0032948 1.10320187.8967981 1.9967052 2 2z" fill="#3b97d3" data-original="#3b97d3"></path><path id="Shape" d="m58 4v6h-29c-1.1032019-.0032948-1.9967052-.89679813-2-2v-2c-.0032948-1.10320187-.8967981-1.9967052-2-2h-25c0-2.209139 1.790861-4 4-4h50c2.209139 0 4 1.790861 4 4z" fill="#285680" data-original="#285680"></path><path id="Shape" d="m16 10h-11c-.55228475 0-1-.44771525-1-1s.44771525-1 1-1h11c.5522847 0 1 .44771525 1 1s-.4477153 1-1 1z" fill="#ecf0f1" data-original="#ecf0f1" class=""></path><path id="Shape" d="m23.414 9 .293-.293c.3789722-.39237889.3735524-1.01608478-.0121814-1.40181858-.3857338-.38573379-1.0094397-.39115363-1.4018186-.01218142l-.293.293-.293-.293c-.3923789-.37897221-1.0160848-.37355237-1.4018186.01218142-.3857338.3857338-.3911536 1.00943969-.0121814 1.40181858l.293.293-.293.293c-.2599566.25107447-.3642126.62287789-.2726972.9725073.0915155.3496295.3645604.6226744.7141899.7141899.3496294.0915154.7214328-.0127406.9725073-.2726972l.293-.293.293.293c.3923789.3789722 1.0160848.3735524 1.4018186-.0121814s.3911536-1.00943971.0121814-1.4018186z" fill="#285680" data-original="#285680"></path><circle id="Oval" cx="52" cy="5" fill="#e64c3c" r="1" data-original="#e64c3c"></circle><circle id="Oval" cx="48" cy="5" fill="#f0c419" r="1" data-original="#f0c419"></circle><circle id="Oval" cx="44" cy="5" fill="#4fba6f" r="1" data-original="#4fba6f"></circle><circle id="Oval" cx="19" cy="47" fill="#2fa8cc" r="7" data-original="#2fa8cc"></circle><circle id="Oval" cx="39" cy="47" fill="#2fa8cc" r="7" data-original="#2fa8cc"></circle><path id="Shape" d="m39 39c-3.7893398.0052918-7.0570725 2.6639489-7.833 6.373-1.4018607-.4973543-2.9321393-.4973543-4.334 0-.8392819-4.1426224-4.7455931-6.9259361-8.9351895-6.3664758-4.1895965.5594603-7.2287155 4.2702362-6.9515978 8.4879276.2771176 4.2176913 3.7756368 7.4989206 8.0024172 7.5053944 4.2267803.0064737 7.7353341-3.2640235 8.0253701-7.4808462 1.26218-.6914215 2.78982-.6914215 4.052 0 .2823392 4.342837 3.984474 7.6633272 8.3323315 7.4733705 4.3478575-.1899566 7.7462962-3.8206689 7.6488079-8.171582-.0974883-4.350913-3.6551371-7.8257644-8.0071394-7.8207885zm-20 14c-3.3137085 0-6-2.6862915-6-6s2.6862915-6 6-6 6 2.6862915 6 6c-.0033074 3.3123376-2.6876624 5.9966926-6 6zm20 0c-3.3137085 0-6-2.6862915-6-6s2.6862915-6 6-6 6 2.6862915 6 6c-.0033074 3.3123376-2.6876624 5.9966926-6 6z" fill="#2980ba" data-original="#2980ba"></path><rect id="Rectangle-path" fill="#cb8252" height="4" rx="2" width="36" x="11" y="32" data-original="#cb8252"></rect><path id="Shape" d="m40 32h-22l1.14-4h19.72z" fill="#e64c3c" data-original="#e64c3c"></path><path id="Shape" d="m38.86 28h-19.72l2.08-7.26c.4611164-1.6223281 1.9434131-2.7411967 3.63-2.74 1.1200157.0923699 2.1830367.5329641 3.04 1.26.671581.4500226 1.548419.4500226 2.22 0 .8628491-.7173437 1.9226808-1.156616 3.04-1.26 1.6865869-.0011967 3.1688836 1.1176719 3.63 2.74z" fill="#a56a43" data-original="#a56a43" class=""></path><g fill="#67b9cc"><path id="Shape" d="m16 48c-.4043959-.0000863-.7689341-.2437275-.923678-.6173454-.1547439-.373618-.0692299-.8036603.216678-1.0896546l2-2c.3923789-.3789722 1.0160848-.3735524 1.4018186.0121814s.3911536 1.0094397.0121814 1.4018186l-2 2c-.1874927.1875494-.4418052.2929434-.707.293z" fill="#67b9cc" data-original="#67b9cc"></path><path id="Shape" d="m19 51c-.4043959-.0000863-.7689341-.2437275-.923678-.6173454-.1547439-.373618-.0692299-.8036603.216678-1.0896546l3-3c.3923789-.3789722 1.0160848-.3735524 1.4018186.0121814s.3911536 1.0094397.0121814 1.4018186l-3 3c-.1874927.1875494-.4418052.2929434-.707.293z" fill="#67b9cc" data-original="#67b9cc"></path><path id="Shape" d="m36 48c-.4043959-.0000863-.7689341-.2437275-.923678-.6173454-.1547439-.373618-.0692299-.8036603.216678-1.0896546l2-2c.3923789-.3789722 1.0160848-.3735524 1.4018186.0121814s.3911536 1.0094397.0121814 1.4018186l-2 2c-.1874927.1875494-.4418052.2929434-.707.293z" fill="#67b9cc" data-original="#67b9cc"></path><path id="Shape" d="m39 51c-.4043959-.0000863-.7689341-.2437275-.923678-.6173454-.1547439-.373618-.0692299-.8036603.216678-1.0896546l3-3c.3923789-.3789722 1.0160848-.3735524 1.4018186.0121814s.3911536 1.0094397.0121814 1.4018186l-3 3c-.1874927.1875494-.4418052.2929434-.707.293z" fill="#67b9cc" data-original="#67b9cc"></path></g></g></g></g></svg>