<svg xmlns="http://www.w3.org/2000/svg" version="1.1" xmlns:xlink="http://www.w3.org/1999/xlink" xmlns:svgjs="http://svgjs.com/svgjs" width="512" height="512" x="0" y="0" viewBox="0 0 512 512" style="enable-background:new 0 0 512 512" xml:space="preserve" class=""><g><g xmlns="http://www.w3.org/2000/svg"><path d="m431.56.009h-309.345c-32.742 0-59.286 26.543-59.286 59.286v393.42c0 32.742 26.543 59.285 59.286 59.285h309.345c32.742 0 59.286-26.543 59.286-59.285v-393.42c-.001-32.743-26.544-59.286-59.286-59.286z" fill="#dd5790" data-original="#dd5790"></path><path d="m185.819 512h-63.595c-32.748 0-59.295-26.546-59.295-59.295v-393.41c0-32.749 26.547-59.295 59.295-59.295h63.595c-32.748 0-59.295 26.546-59.295 59.295v393.411c0 32.747 26.547 59.294 59.295 59.294z" fill="#da387d" data-original="#da387d"></path><g fill="#ffe07d"><path d="m21.155 335.175c0 14.287 11.582 25.869 25.869 25.869h46.655c14.287 0 25.869-11.582 25.869-25.869 0-14.287-11.582-25.869-25.869-25.869h-46.655c-14.287 0-25.869 11.582-25.869 25.869z" fill="#ffe07d" data-original="#ffe07d"></path><path d="m21.155 249.904c0 14.287 11.582 25.869 25.869 25.869h46.655c14.287 0 25.869-11.582 25.869-25.869 0-14.287-11.582-25.869-25.869-25.869h-46.655c-14.287 0-25.869 11.582-25.869 25.869z" fill="#ffe07d" data-original="#ffe07d"></path><path d="m21.155 164.632c0 14.287 11.582 25.869 25.869 25.869h46.655c14.287 0 25.869-11.582 25.869-25.869 0-14.287-11.582-25.869-25.869-25.869h-46.655c-14.287 0-25.869 11.582-25.869 25.869z" fill="#ffe07d" data-original="#ffe07d"></path><path d="m21.155 79.36c0 14.287 11.582 25.869 25.869 25.869h46.655c14.287 0 25.869-11.582 25.869-25.869 0-14.287-11.582-25.869-25.869-25.869h-46.655c-14.287 0-25.869 11.582-25.869 25.869z" fill="#ffe07d" data-original="#ffe07d"></path></g><path d="m86.911 361.042h-39.879c-14.294 0-25.877-11.582-25.877-25.866 0-14.283 11.582-25.866 25.877-25.866h39.879c-14.283 0-25.866 11.582-25.866 25.866s11.582 25.866 25.866 25.866z" fill="#ffd064" data-original="#ffd064"></path><path d="m86.911 275.773h-39.879c-14.294 0-25.877-11.582-25.877-25.866 0-14.294 11.582-25.877 25.877-25.877h39.879c-14.283 0-25.866 11.582-25.866 25.877 0 14.284 11.582 25.866 25.866 25.866z" fill="#ffd064" data-original="#ffd064"></path><path d="m86.911 190.505h-39.879c-14.294 0-25.877-11.582-25.877-25.877 0-14.283 11.582-25.866 25.877-25.866h39.879c-14.283 0-25.866 11.582-25.866 25.866 0 14.295 11.582 25.877 25.866 25.877z" fill="#ffd064" data-original="#ffd064"></path><path d="m86.911 105.226h-39.879c-14.294 0-25.877-11.582-25.877-25.866 0-14.283 11.582-25.866 25.877-25.866h39.879c-14.283 0-25.866 11.582-25.866 25.866 0 14.283 11.582 25.866 25.866 25.866z" fill="#ffd064" data-original="#ffd064"></path><path d="m21.155 420.447c0 14.287 11.582 25.869 25.869 25.869h46.655c14.287 0 25.869-11.582 25.869-25.869 0-14.287-11.582-25.869-25.869-25.869h-46.655c-14.287 0-25.869 11.582-25.869 25.869z" fill="#ffe07d" data-original="#ffe07d"></path><path d="m86.911 446.317h-39.879c-14.294 0-25.877-11.582-25.877-25.866 0-14.294 11.582-25.877 25.877-25.877h39.879c-14.283 0-25.866 11.582-25.866 25.877 0 14.284 11.582 25.866 25.866 25.866z" fill="#ffd064" data-original="#ffd064"></path><g><path d="m427.688 347.585-18.866 18.866c-38.448 38.448-100.784 38.448-139.232 0l-86.42-86.42c-38.454-38.454-38.454-100.8 0-139.254l20.964-20.964 75.148 75.148-25.302 25.302c-13.953 13.953-13.953 36.574 0 50.527l24.851 24.851c13.953 13.953 36.574 13.953 50.527 0l23.193-23.193z" fill="#9dc6fb" data-original="#9dc6fb"></path><path d="m204.136 119.814 27.848 27.848-8.307 8.307c-38.452 38.452-38.452 100.798.004 139.254l86.417 86.417c4.851 4.851 10.084 9.094 15.603 12.719-20.527-2.821-40.33-12.127-56.111-27.908l-86.421-86.421c-38.452-38.452-38.452-100.798 0-139.25z" fill="#80b4fb" data-original="#80b4fb" class=""></path><path d="m258.861 203.977-63.744-63.744c-7.325-7.325-7.325-19.2 0-26.525 7.325-7.325 19.2-7.325 26.525 0l63.744 63.744c7.325 7.325 7.325 19.2 0 26.525-7.325 7.324-19.2 7.324-26.525 0z" fill="#f9f6f9" data-original="#f9f6f9"></path><path d="m221.638 113.708 30.382 30.382c-3.663-3.663-8.464-5.494-13.264-5.499-4.797 0-9.597 1.831-13.26 5.494-7.326 7.326-7.326 19.203 0 26.529l-30.382-30.382c-7.326-7.326-7.322-19.199.004-26.524 3.663-3.663 8.464-5.494 13.26-5.494s9.597 1.831 13.26 5.494z" fill="#dddaec" data-original="#dddaec"></path><path d="m409.481 354.597-63.744-63.744c-7.325-7.325-7.325-19.2 0-26.525 7.325-7.325 19.2-7.325 26.525 0l63.744 63.744c7.325 7.325 7.325 19.2 0 26.525-7.324 7.325-19.2 7.325-26.525 0z" fill="#f9f6f9" data-original="#f9f6f9"></path><path d="m372.258 264.329 30.382 30.382c-3.663-3.663-8.464-5.494-13.264-5.499-4.797 0-9.597 1.831-13.26 5.494-7.326 7.326-7.326 19.203 0 26.529l-30.382-30.382c-7.326-7.326-7.322-19.199.004-26.524 3.663-3.663 8.464-5.494 13.26-5.494 4.796-.001 9.597 1.831 13.26 5.494z" fill="#dddaec" data-original="#dddaec"></path></g></g></g></svg>