<svg xmlns="http://www.w3.org/2000/svg" version="1.1" xmlns:xlink="http://www.w3.org/1999/xlink" xmlns:svgjs="http://svgjs.com/svgjs" width="512" height="512" x="0" y="0" viewBox="0 0 512 512" style="enable-background:new 0 0 512 512" xml:space="preserve" class=""><g><linearGradient xmlns="http://www.w3.org/2000/svg" id="SVGID_1_" gradientUnits="userSpaceOnUse" x1="256" x2="256" y1="512" y2="0"><stop offset="0" stop-color="#fd5900"></stop><stop offset="1" stop-color="#ffde00"></stop></linearGradient><linearGradient xmlns="http://www.w3.org/2000/svg" id="SVGID_2_" gradientUnits="userSpaceOnUse" x1="256" x2="256" y1="422" y2="60"><stop offset="0" stop-color="#ffe59a"></stop><stop offset="1" stop-color="#ffffd5"></stop></linearGradient><g xmlns="http://www.w3.org/2000/svg" id="Shield"><g><g><path d="m436 60c-24.813 0-45-20.187-45-45 0-8.284-6.716-15-15-15h-240c-8.284 0-15 6.716-15 15 0 24.813-20.187 45-45 45-8.284 0-15 6.716-15 15v170.263c0 118.377 75.213 227.62 190.256 265.967 1.54.513 3.142.77 4.744.77s3.204-.257 4.744-.77c115.018-38.339 190.256-147.564 190.256-265.967v-170.263c0-8.284-6.716-15-15-15z" fill="url(#SVGID_1_)" data-original="url(#SVGID_1_)"></path></g></g><g><g><path d="m256 60c-57.897 0-105 47.103-105 105 0 40.505 23.716 77.236 60 94.491v117.509c0 3.978 1.581 7.793 4.394 10.606l30 30c2.928 2.93 6.767 4.394 10.606 4.394s7.678-1.464 10.606-4.394l30-30c2.813-2.813 4.394-6.628 4.394-10.606v-117.509c36.284-17.254 60-53.986 60-94.491 0-57.897-47.103-105-105-105zm0 90c-8.284 0-15-6.716-15-15s6.716-15 15-15 15 6.716 15 15-6.716 15-15 15z" fill="url(#SVGID_2_)" data-original="url(#SVGID_2_)"></path></g></g></g></g></svg>