<svg xmlns="http://www.w3.org/2000/svg" version="1.1" xmlns:xlink="http://www.w3.org/1999/xlink" xmlns:svgjs="http://svgjs.com/svgjs" width="512" height="512" x="0" y="0" viewBox="0 0 512 512" style="enable-background:new 0 0 512 512" xml:space="preserve" class=""><g>
<path xmlns="http://www.w3.org/2000/svg" style="" d="M362.484,90h-62.402V26.4l-30-26.4h-225c-24.902,0-45,20.099-45,45v422c0,24.899,20.098,45,45,45h300  c24.902,0,45-20.101,45-45V120L362.484,90z" fill="#cae8f9" data-original="#cae8f9" class=""></path>
<path xmlns="http://www.w3.org/2000/svg" style="" d="M390.082,120v347c0,24.899-20.098,45-45,45h-150V0h75l30,26.4V90h62.402L390.082,120z" fill="#b7e0f6" data-original="#b7e0f6"></path>
<path xmlns="http://www.w3.org/2000/svg" style="" d="M390.082,99v21h-105c-8.401,0-15-6.601-15-15V0h15c0.901,0,2.102,0,2.999,0.3  c12.601,0.298,22.8,4.499,30.601,11.699l57.301,54.6C384.984,75,390.082,86.7,390.082,99z" fill="#81c8ee" data-original="#81c8ee"></path>
<g xmlns="http://www.w3.org/2000/svg">
	<path style="" d="M240.082,105c0,8.399-6.599,15-15,15h-150c-8.401,0-15-6.601-15-15c0-8.401,6.599-15,15-15h150   C233.483,90,240.082,96.599,240.082,105z" fill="#32d736" data-original="#32d736"></path>
	<path style="" d="M330.082,196c0,8.399-6.599,15-15,15h-240c-8.401,0-15-6.601-15-15c0-8.401,6.599-15,15-15h240   C323.483,181,330.082,187.599,330.082,196z" fill="#32d736" data-original="#32d736"></path>
	<path style="" d="M330.082,286c0,8.399-6.599,15-15,15h-240c-8.401,0-15-6.601-15-15c0-8.401,6.599-15,15-15h240   C323.483,271,330.082,277.599,330.082,286z" fill="#32d736" data-original="#32d736"></path>
	<path style="" d="M240.082,376c0,8.399-6.599,15-15,15h-150c-8.401,0-15-6.601-15-15c0-8.401,6.599-15,15-15h150   C233.483,361,240.082,367.599,240.082,376z" fill="#32d736" data-original="#32d736"></path>
</g>
<g xmlns="http://www.w3.org/2000/svg">
	<path style="" d="M240.082,376c0,8.399-6.599,15-15,15h-30v-30h30C233.483,361,240.082,367.599,240.082,376z" fill="#10bb67" data-original="#10bb67"></path>
	<path style="" d="M225.082,120h-30V90h30c8.401,0,15,6.599,15,15C240.082,113.399,233.483,120,225.082,120z" fill="#10bb67" data-original="#10bb67"></path>
	<path style="" d="M330.082,286c0,8.399-6.599,15-15,15h-120v-30h120C323.483,271,330.082,277.599,330.082,286z" fill="#10bb67" data-original="#10bb67"></path>
	<path style="" d="M315.082,211h-120v-30h120c8.401,0,15,6.599,15,15C330.082,204.399,323.483,211,315.082,211z" fill="#10bb67" data-original="#10bb67"></path>
</g>
<path xmlns="http://www.w3.org/2000/svg" style="" d="M355.285,356.8l-22.203-18.6l-31.499,12l-0.3,0.298l-4.801,6c-4.501,5.4-7.5,11.4-9.598,18.6  l-13.802,58.5c-1.198,5.4,0.601,11.1,5.101,14.7c4.797,4.2,11.4,4.501,15.601,2.401l54.899-24  c6.302-2.701,12.301-6.901,16.498-12.301l5.105-6.299l2.695-36.601L355.285,356.8z" fill="#fedb41" data-original="#fedb41"></path>
<path xmlns="http://www.w3.org/2000/svg" style="" d="M511.684,219.699c-0.901-11.999-6.699-22.8-15.401-30c-9.302-7.8-20.702-11.4-32.703-10.499  c-11.997,0.899-23.101,6.599-30.601,15.899l-9.899,11.7l-3.9,35.7l19.2,15.899l21.603,18.301l32.098-12.301l9.598-11.1  c0-0.3,0-0.3,0-0.3C509.481,243.699,512.881,231.7,511.684,219.699z" fill="#787780" data-original="#787780"></path>
<path xmlns="http://www.w3.org/2000/svg" style="" d="M355.285,356.8l17.695,14.7l-2.695,36.601l-5.105,6.299c-4.197,5.4-10.195,9.6-16.498,12.301  l-54.899,24c-4.2,2.1-10.803,1.8-15.601-2.401L355.285,356.8z" fill="#fcbf29" data-original="#fcbf29"></path>
<path xmlns="http://www.w3.org/2000/svg" style="" d="M501.681,252.999c0,0,0,0,0,0.3l-9.598,11.1L459.984,276.7l-21.603-18.301l57.902-68.699  c8.701,7.2,14.5,18.001,15.401,30C512.881,231.7,509.481,243.699,501.681,252.999z" fill="#57555c" data-original="#57555c"></path>
<path xmlns="http://www.w3.org/2000/svg" style="" d="M457.582,235.6l-0.01-0.01l-34.49-28.79l-121.8,143.7l34.8,29.1l0.02,0.02l34.18,28.48l121.8-143.7  L457.582,235.6z" fill="#fd3c65" data-original="#fd3c65"></path>
<polygon xmlns="http://www.w3.org/2000/svg" style="" points="492.082,264.4 370.282,408.1 336.102,379.62 457.572,235.59 457.582,235.6 " fill="#fd003a" data-original="#fd003a"></polygon>
<g xmlns="http://www.w3.org/2000/svg">
</g>
<g xmlns="http://www.w3.org/2000/svg">
</g>
<g xmlns="http://www.w3.org/2000/svg">
</g>
<g xmlns="http://www.w3.org/2000/svg">
</g>
<g xmlns="http://www.w3.org/2000/svg">
</g>
<g xmlns="http://www.w3.org/2000/svg">
</g>
<g xmlns="http://www.w3.org/2000/svg">
</g>
<g xmlns="http://www.w3.org/2000/svg">
</g>
<g xmlns="http://www.w3.org/2000/svg">
</g>
<g xmlns="http://www.w3.org/2000/svg">
</g>
<g xmlns="http://www.w3.org/2000/svg">
</g>
<g xmlns="http://www.w3.org/2000/svg">
</g>
<g xmlns="http://www.w3.org/2000/svg">
</g>
<g xmlns="http://www.w3.org/2000/svg">
</g>
<g xmlns="http://www.w3.org/2000/svg">
</g>
</g></svg>