<svg xmlns="http://www.w3.org/2000/svg" version="1.1" xmlns:xlink="http://www.w3.org/1999/xlink" xmlns:svgjs="http://svgjs.com/svgjs" width="512" height="512" x="0" y="0" viewBox="0 0 510 510" style="enable-background:new 0 0 512 512" xml:space="preserve" class=""><g><linearGradient xmlns="http://www.w3.org/2000/svg" id="lg1"><stop offset="0" stop-color="#dc4955"></stop><stop offset="1" stop-color="#c4237c"></stop></linearGradient><linearGradient xmlns="http://www.w3.org/2000/svg" id="SVGID_1_" gradientUnits="userSpaceOnUse" x1="39" x2="441.664" xmlns:xlink="http://www.w3.org/1999/xlink" xlink:href="#lg1" y1="39" y2="441.664"></linearGradient><linearGradient xmlns="http://www.w3.org/2000/svg" id="lg2"><stop offset="0" stop-color="#8a1958" stop-opacity="0"></stop><stop offset="1" stop-color="#8a1958"></stop></linearGradient><linearGradient xmlns="http://www.w3.org/2000/svg" id="SVGID_2_" gradientUnits="userSpaceOnUse" x1="255" x2="255" xmlns:xlink="http://www.w3.org/1999/xlink" xlink:href="#lg2" y1="367" y2="495.063"></linearGradient><linearGradient xmlns="http://www.w3.org/2000/svg" id="SVGID_3_" gradientUnits="userSpaceOnUse" x1="271" x2="271" xmlns:xlink="http://www.w3.org/1999/xlink" xlink:href="#lg1" y1="399.654" y2="123.867"></linearGradient><linearGradient xmlns="http://www.w3.org/2000/svg" id="SVGID_4_" gradientUnits="userSpaceOnUse" x1="446.48" x2="263.48" xmlns:xlink="http://www.w3.org/1999/xlink" xlink:href="#lg2" y1="464.39" y2="297.39"></linearGradient><linearGradient xmlns="http://www.w3.org/2000/svg" id="SVGID_5_" gradientUnits="userSpaceOnUse" x1="177.535" x2="304.311" y1="205.465" y2="332.24"><stop offset="0" stop-color="#eef4ff"></stop><stop offset="1" stop-color="#cfe7fd"></stop></linearGradient><linearGradient xmlns="http://www.w3.org/2000/svg" id="SVGID_6_" gradientUnits="userSpaceOnUse" x1="271.224" x2="297.224" y1="300.212" y2="348.212"><stop offset="0" stop-color="#8aaadc" stop-opacity="0"></stop><stop offset="1" stop-color="#8aaadc"></stop></linearGradient><g xmlns="http://www.w3.org/2000/svg"><path d="m403.41 0h-296.82c-58.87 0-106.59 47.72-106.59 106.59v296.82c0 58.87 47.72 106.59 106.59 106.59h296.82c58.87 0 106.59-47.72 106.59-106.59v-296.82c0-58.87-47.72-106.59-106.59-106.59zm-315.41 472.13c0 3.79-3.08 6.87-6.87 6.87h-27.26c-3.79 0-6.87-3.08-6.87-6.87v-27.26c0-3.79 3.08-6.87 6.87-6.87h27.26c3.79 0 6.87 3.08 6.87 6.87zm0-407c0 3.79-3.08 6.87-6.87 6.87h-27.26c-3.79 0-6.87-3.08-6.87-6.87v-27.26c0-3.79 3.08-6.87 6.87-6.87h27.26c3.79 0 6.87 3.08 6.87 6.87zm75 407c0 3.79-3.08 6.87-6.87 6.87h-27.26c-3.79 0-6.87-3.08-6.87-6.87v-27.26c0-3.79 3.08-6.87 6.87-6.87h27.26c3.79 0 6.87 3.08 6.87 6.87zm0-407c0 3.79-3.08 6.87-6.87 6.87h-27.26c-3.79 0-6.87-3.08-6.87-6.87v-27.26c0-3.79 3.08-6.87 6.87-6.87h27.26c3.79 0 6.87 3.08 6.87 6.87zm75 407c0 3.79-3.08 6.87-6.87 6.87h-27.26c-3.79 0-6.87-3.08-6.87-6.87v-27.26c0-3.79 3.08-6.87 6.87-6.87h27.26c3.79 0 6.87 3.08 6.87 6.87zm0-407c0 3.79-3.08 6.87-6.87 6.87h-27.26c-3.79 0-6.87-3.08-6.87-6.87v-27.26c0-3.79 3.08-6.87 6.87-6.87h27.26c3.79 0 6.87 3.08 6.87 6.87zm75 407c0 3.79-3.08 6.87-6.87 6.87h-27.26c-3.79 0-6.87-3.08-6.87-6.87v-27.26c0-3.79 3.08-6.87 6.87-6.87h27.26c3.79 0 6.87 3.08 6.87 6.87zm0-407c0 3.79-3.08 6.87-6.87 6.87h-27.26c-3.79 0-6.87-3.08-6.87-6.87v-27.26c0-3.79 3.08-6.87 6.87-6.87h27.26c3.79 0 6.87 3.08 6.87 6.87zm75 407c0 3.79-3.08 6.87-6.87 6.87h-27.26c-3.79 0-6.87-3.08-6.87-6.87v-27.26c0-3.79 3.08-6.87 6.87-6.87h27.26c3.79 0 6.87 3.08 6.87 6.87zm0-407c0 3.79-3.08 6.87-6.87 6.87h-27.26c-3.79 0-6.87-3.08-6.87-6.87v-27.26c0-3.79 3.08-6.87 6.87-6.87h27.26c3.79 0 6.87 3.08 6.87 6.87zm75 407c0 3.79-3.08 6.87-6.87 6.87h-27.26c-3.79 0-6.87-3.08-6.87-6.87v-27.26c0-3.79 3.08-6.87 6.87-6.87h27.26c3.79 0 6.87 3.08 6.87 6.87zm0-407c0 3.79-3.08 6.87-6.87 6.87h-27.26c-3.79 0-6.87-3.08-6.87-6.87v-27.26c0-3.79 3.08-6.87 6.87-6.87h27.26c3.79 0 6.87 3.08 6.87 6.87z" fill="url(#SVGID_1_)" data-original="url(#SVGID_1_)"></path><path d="m0 344.63v58.78c0 58.87 47.72 106.59 106.59 106.59h296.82c58.87 0 106.59-47.72 106.59-106.59v-58.78zm88 127.5c0 3.79-3.08 6.87-6.87 6.87h-27.26c-3.79 0-6.87-3.08-6.87-6.87v-27.26c0-3.79 3.08-6.87 6.87-6.87h27.26c3.79 0 6.87 3.08 6.87 6.87zm75 0c0 3.79-3.08 6.87-6.87 6.87h-27.26c-3.79 0-6.87-3.08-6.87-6.87v-27.26c0-3.79 3.08-6.87 6.87-6.87h27.26c3.79 0 6.87 3.08 6.87 6.87zm75 0c0 3.79-3.08 6.87-6.87 6.87h-27.26c-3.79 0-6.87-3.08-6.87-6.87v-27.26c0-3.79 3.08-6.87 6.87-6.87h27.26c3.79 0 6.87 3.08 6.87 6.87zm75 0c0 3.79-3.08 6.87-6.87 6.87h-27.26c-3.79 0-6.87-3.08-6.87-6.87v-27.26c0-3.79 3.08-6.87 6.87-6.87h27.26c3.79 0 6.87 3.08 6.87 6.87zm75 0c0 3.79-3.08 6.87-6.87 6.87h-27.26c-3.79 0-6.87-3.08-6.87-6.87v-27.26c0-3.79 3.08-6.87 6.87-6.87h27.26c3.79 0 6.87 3.08 6.87 6.87zm75 0c0 3.79-3.08 6.87-6.87 6.87h-27.26c-3.79 0-6.87-3.08-6.87-6.87v-27.26c0-3.79 3.08-6.87 6.87-6.87h27.26c3.79 0 6.87 3.08 6.87 6.87z" fill="url(#SVGID_2_)" data-original="url(#SVGID_2_)"></path><path d="m193.678 421.333c-42.428-.001-76.946-34.518-76.946-76.944v-178.778c0-42.427 34.518-76.944 76.946-76.944 13.307 0 26.562 3.592 38.333 10.388l154.829 89.389c24.061 13.892 38.427 38.773 38.427 66.556s-14.366 52.665-38.427 66.556l-154.829 89.389c-11.77 6.795-25.026 10.388-38.332 10.388 0 0 0 0-.001 0z" fill="url(#SVGID_3_)" data-original="url(#SVGID_3_)"></path><path d="m510 403.41v-65.717l-119.008-119.009c-4.332-5.267-9.72-9.92-16.178-13.649l-148.778-85.896c-39.233-22.651-88.273 5.663-88.273 50.965v171.791c0 18.843 8.489 34.742 21.223 45.262l50.842 50.843h21.302c3.79 0 6.87 3.08 6.87 6.87v21.302l43.828 43.828h121.582c58.87 0 106.59-47.72 106.59-106.59zm-88 41.46c0-3.79 3.08-6.87 6.87-6.87h27.26c3.79 0 6.87 3.08 6.87 6.87v27.26c0 3.79-3.08 6.87-6.87 6.87h-27.26c-3.79 0-6.87-3.08-6.87-6.87zm-109 27.26c0 3.79-3.08 6.87-6.87 6.87h-27.26c-3.79 0-6.87-3.08-6.87-6.87v-27.26c0-3.79 3.08-6.87 6.87-6.87h27.26c3.79 0 6.87 3.08 6.87 6.87zm75 0c0 3.79-3.08 6.87-6.87 6.87h-27.26c-3.79 0-6.87-3.08-6.87-6.87v-27.26c0-3.79 3.08-6.87 6.87-6.87h27.26c3.79 0 6.87 3.08 6.87 6.87z" fill="url(#SVGID_4_)" data-original="url(#SVGID_4_)"></path><path d="m373.813 204.035-148.778-85.896c-39.233-22.651-88.273 5.663-88.273 50.965v171.791c0 45.302 49.041 73.616 88.273 50.965l148.778-85.896c39.233-22.65 39.233-79.278 0-101.929z" fill="url(#SVGID_5_)" data-original="url(#SVGID_5_)"></path><path d="m373.813 204.035-148.778-85.896c-39.233-22.651-88.273 5.663-88.273 50.965v171.791c0 45.302 49.041 73.616 88.273 50.965l148.778-85.896c39.233-22.65 39.233-79.278 0-101.929z" fill="url(#SVGID_6_)" data-original="url(#SVGID_6_)"></path></g></g></svg>